<svg width="22" height="16" viewBox="0 0 22 16" fill="none" xmlns="http://www.w3.org/2000/svg">
<g id="Group 10">
<path id="&#229;&#189;&#162;&#231;&#138;&#182;" d="M19.3 0C20.4046 0 21.3 0.89543 21.3 2V14C21.3 15.1046 20.4046 16 19.3 16H3.30004C2.19547 16 1.30004 15.1046 1.30004 14V13H3.30004V14H19.3V3.4226L12.3648 10.3578C11.779 10.9436 10.8293 10.9436 10.2435 10.3578L3.30004 3.41431V4H1.30004V2C1.30004 0.89543 2.19547 0 3.30004 0H19.3Z" fill="#334155"/>
<path id="&#229;&#189;&#162;&#231;&#138;&#182;_2" d="M5.30004 7C5.30004 6.4477 4.85232 6 4.30004 6H1.30004C0.747761 6 0.300041 6.4477 0.300041 7C0.300041 7.5523 0.747761 8 1.30004 8H4.30004C4.85232 8 5.30004 7.5523 5.30004 7Z" fill="#DA7D4A"/>
<path id="&#229;&#189;&#162;&#231;&#138;&#182;_3" d="M5.30004 10C5.30004 9.4477 4.85232 9 4.30004 9H1.30004C0.747761 9 0.300041 9.4477 0.300041 10C0.300041 10.5523 0.747761 11 1.30004 11H4.30004C4.85232 11 5.30004 10.5523 5.30004 10Z" fill="#DA7D4A"/>
</g>
</svg>
