<svg width="21" height="19" viewBox="0 0 21 19" fill="none" xmlns="http://www.w3.org/2000/svg">
<g id="Group 11">
<path id="&#229;&#189;&#162;&#231;&#138;&#182;" d="M9.5 0C13.6825 0 17.1986 2.85296 18.2084 6.71896C17.2357 6.25792 16.148 6 15 6C10.8579 6 7.5 9.3579 7.5 13.5C7.5 15.182 8.05369 16.7347 8.9887 17.9857C7.49774 17.9021 6.10187 17.455 4.89052 16.7314L2.24127 17.5106C1.47559 17.7358 0.76419 17.0244 0.98939 16.2587L1.76858 13.6095C0.96288 12.2606 0.5 10.683 0.5 9C0.5 4.02944 4.52944 0 9.5 0Z" fill="#334155"/>
<path id="&#229;&#189;&#162;&#231;&#138;&#182;_2" d="M20.5 13.5C20.5 10.4624 18.0376 8 15 8C11.9624 8 9.5 10.4624 9.5 13.5C9.5 16.5376 11.9624 19 15 19C15.9586 19 16.8622 18.754 17.6484 18.3213L18.959 18.7068C19.7222 18.9312 20.4312 18.2222 20.2068 17.459L19.8213 16.1484C20.254 15.3622 20.5 14.4586 20.5 13.5Z" fill="#DA7D4A"/>
</g>
</svg>
