<svg width="20" height="17" viewBox="0 0 20 17" fill="none" xmlns="http://www.w3.org/2000/svg">
<g id="Group 12">
<path id="&#229;&#189;&#162;&#231;&#138;&#182;" d="M5.10001 10C6.15437 10 7.01817 10.8159 7.09452 11.8507L7.10001 12V15C7.10001 16.0544 6.28413 16.9182 5.24927 16.9945L5.10001 17H2.10001C1.04564 17 0.181841 16.1841 0.105492 15.1493L0.100006 15V12C0.100006 10.9456 0.915883 10.0818 1.95074 10.0055L2.10001 10H5.10001ZM5.10001 0C6.20458 0 7.10001 0.89543 7.10001 2V5C7.10001 6.10457 6.20458 7 5.10001 7H2.10001C0.995436 7 0.100006 6.10457 0.100006 5V2C0.100006 0.89543 0.995436 0 2.10001 0H5.10001Z" fill="#334155"/>
<g id="&#229;&#189;&#162;&#231;&#138;&#182;_2">
<path d="M15.1 15C15.1 14.4477 14.6523 14 14.1 14H10.1L9.98338 14.0067C9.48603 14.0645 9.10001 14.4872 9.10001 15C9.10001 15.5523 9.54771 16 10.1 16H14.1L14.2166 15.9933C14.714 15.9355 15.1 15.5128 15.1 15Z" fill="#DA7D4A"/>
<path d="M19.1 11C19.1 10.4477 18.6523 10 18.1 10H10.1C9.54771 10 9.10001 10.4477 9.10001 11C9.10001 11.5523 9.54771 12 10.1 12H18.1C18.6523 12 19.1 11.5523 19.1 11Z" fill="#DA7D4A"/>
<path d="M15.1 5C15.1 4.44772 14.6523 4 14.1 4H10.1L9.98338 4.00673C9.48603 4.06449 9.10001 4.48717 9.10001 5C9.10001 5.55228 9.54771 6 10.1 6H14.1L14.2166 5.99327C14.714 5.93551 15.1 5.51283 15.1 5Z" fill="#DA7D4A"/>
<path d="M19.1 1C19.1 0.44772 18.6523 0 18.1 0H10.1L9.98338 0.0067277C9.48603 0.0644934 9.10001 0.487169 9.10001 1C9.10001 1.55228 9.54771 2 10.1 2H18.1L18.2166 1.99327C18.714 1.93551 19.1 1.51283 19.1 1Z" fill="#DA7D4A"/>
</g>
</g>
</svg>
