<svg width="28" height="27" viewBox="0 0 28 27" fill="none" xmlns="http://www.w3.org/2000/svg">
<g id="line">
<path id="bg" d="M28 11.4979C28 5.15791 21.7199 -1.38171e-05 13.9999 -1.38171e-05C6.28094 -1.38171e-05 0 5.15791 0 11.4979C0 17.1816 4.98063 21.9416 11.7084 22.8418C12.1644 22.9412 12.7849 23.146 12.9419 23.5404C13.0831 23.8986 13.0342 24.4598 12.987 24.8216C12.987 24.8216 12.8227 25.8214 12.7873 26.0343C12.7264 26.3926 12.5061 27.4353 13.9999 26.7981C15.4942 26.1609 22.0626 21.9935 24.9998 18.572C27.0287 16.3204 28 14.0353 28 11.4979Z" fill="#DA7D4A"/>
<path id="vector" d="M11.1555 8.42439H10.1735C10.0229 8.42439 9.90051 8.54783 9.90051 8.69948V14.866C9.90051 15.0179 10.0229 15.1411 10.1735 15.1411H11.1555C11.306 15.1411 11.4281 15.0179 11.4281 14.866V8.69948C11.4281 8.54783 11.306 8.42439 11.1555 8.42439Z" fill="white"/>
<path id="vector_2" d="M17.9146 8.42439H16.9326C16.7821 8.42439 16.66 8.54783 16.66 8.69948V12.3631L13.8645 8.54674C13.8128 8.46835 13.7289 8.42953 13.6374 8.42439H12.6557C12.5051 8.42439 12.3828 8.54783 12.3828 8.69948V14.866C12.3828 15.0179 12.5051 15.1411 12.6557 15.1411H13.6374C13.7883 15.1411 13.9104 15.0179 13.9104 14.866V11.2035L16.7093 15.0247C16.7596 15.0967 16.8449 15.1411 16.9326 15.1411H17.9146C18.0655 15.1411 18.1873 15.0179 18.1873 14.866V8.69948C18.1873 8.54783 18.0655 8.42439 17.9146 8.42439Z" fill="white"/>
<path id="vector_3" d="M8.78829 13.597H6.12004V8.69987C6.12004 8.54768 5.99793 8.42424 5.84764 8.42424H4.86536C4.7148 8.42424 4.59268 8.54768 4.59268 8.69987V14.8653C4.59268 15.015 4.71426 15.1412 4.86509 15.1412H8.78829C8.93886 15.1412 9.06043 15.0175 9.06043 14.8653V13.8727C9.06043 13.7205 8.93886 13.597 8.78829 13.597Z" fill="white"/>
<path id="vector_4" d="M23.3376 9.96845C23.4882 9.96845 23.6097 9.84528 23.6097 9.69281V8.70014C23.6097 8.54795 23.4882 8.42424 23.3376 8.42424H19.4147C19.264 8.42424 19.142 8.55024 19.142 8.69987V14.8656C19.142 15.0148 19.2637 15.1412 19.4141 15.1412H23.3376C23.4882 15.1412 23.6097 15.0175 23.6097 14.8656V13.8727C23.6097 13.7207 23.4882 13.597 23.3376 13.597H20.6696V12.5547H23.3376C23.4882 12.5547 23.6097 12.4313 23.6097 12.2791V11.2864C23.6097 11.1342 23.4882 11.0105 23.3376 11.0105H20.6696V9.96845H23.3376Z" fill="white"/>
</g>
</svg>
