<svg width="25" height="24" viewBox="0 0 25 24" fill="none" xmlns="http://www.w3.org/2000/svg">
<g id="User">
<g id="user_star_fill">
<path id="&#229;&#189;&#162;&#231;&#138;&#182;" fill-rule="evenodd" clip-rule="evenodd" d="M11.7 2C8.93859 2 6.70001 4.23858 6.70001 7C6.70001 9.76142 8.93859 12 11.7 12C14.4614 12 16.7 9.76142 16.7 7C16.7 4.23858 14.4614 2 11.7 2ZM11.7 13C9.30454 13 7.12468 13.6937 5.52228 14.6715C4.72144 15.1602 4.03789 15.7363 3.54398 16.3615C3.05806 16.9767 2.70001 17.713 2.70001 18.5C2.70001 19.3449 3.11115 20.0111 3.70267 20.4859C4.26325 20.9359 5.00183 21.2336 5.78717 21.4416C7.36467 21.8593 9.47102 22 11.7 22C11.9305 22 12.1591 21.9985 12.3854 21.9953C12.7257 21.9906 13.0403 21.8131 13.2203 21.5241C13.4002 21.2352 13.4209 20.8746 13.275 20.567C12.9066 19.79 12.7 18.9205 12.7 18C12.7 16.7478 13.0825 15.588 13.7369 14.6272C13.9349 14.3365 13.9656 13.9633 13.8179 13.6442C13.6702 13.325 13.3658 13.107 13.0161 13.0698C12.587 13.0242 12.1475 13 11.7 13Z" fill="#334155"/>
<path id="&#229;&#189;&#162;&#231;&#138;&#182;_2" d="M18.7001 13.5C19.056 13.5 19.3851 13.6892 19.5642 13.9967L20.4739 15.5586L22.2404 15.9411C22.5883 16.0164 22.8699 16.2709 22.9799 16.6094C23.0898 16.9479 23.0116 17.3193 22.7745 17.5847L21.5702 18.9325L21.7523 20.7308C21.7881 21.0849 21.6331 21.4314 21.3451 21.6406C21.0572 21.8498 20.6798 21.8902 20.3541 21.7466L18.7001 21.0178L17.0461 21.7466C16.7204 21.8902 16.343 21.8498 16.0551 21.6406C15.7671 21.4314 15.6121 21.0849 15.6479 20.7308L15.83 18.9325L14.6257 17.5847C14.3886 17.3193 14.3104 16.9479 14.4203 16.6094C14.5303 16.2709 14.8119 16.0164 15.1598 15.9411L16.9263 15.5586L17.836 13.9967C18.0151 13.6892 18.3442 13.5 18.7001 13.5Z" fill="#DA7D4A"/>
</g>
</g>
</svg>
