<svg width="25" height="24" viewBox="0 0 25 24" fill="none" xmlns="http://www.w3.org/2000/svg">
<g id="Icon">
<rect id="Rectangle 1" x="7.90002" y="7" width="10" height="10" fill="#DA7D4A"/>
<path id="&#229;&#189;&#162;&#231;&#138;&#182;" d="M12.9 2C18.4228 2 22.9 6.47715 22.9 12C22.9 17.5228 18.4228 22 12.9 22C7.37717 22 2.90002 17.5228 2.90002 12C2.90002 6.47715 7.37717 2 12.9 2ZM12.1929 8.46447L9.36445 11.2929C8.97393 11.6834 8.97393 12.3166 9.36445 12.7071L12.1929 15.5355C12.5834 15.9261 13.2165 15.9261 13.6071 15.5355L16.4355 12.7071C16.826 12.3166 16.826 11.6834 16.4355 11.2929L13.6071 8.46447C13.2165 8.07394 12.5834 8.07394 12.1929 8.46447Z" fill="#334155"/>
</g>
</svg>
