<svg width="350" height="272" viewBox="0 0 350 272" fill="none" xmlns="http://www.w3.org/2000/svg">
<path d="M0 12.963C0 5.80372 5.80372 0 12.963 0H337.037C344.196 0 350 5.80372 350 12.963V258.179C350 265.338 344.196 271.142 337.037 271.142H12.963C5.80371 271.142 0 265.338 0 258.179V12.963Z" fill="#E2E8F0"/>
<path d="M168.67 138.062L162.425 146.164H187.575L179.473 135.361L173.228 143.463L168.67 138.062ZM191.204 147.936C191.204 148.892 190.838 149.736 190.107 150.468C189.375 151.199 188.531 151.565 187.575 151.565H162.425C161.469 151.565 160.625 151.199 159.893 150.468C159.162 149.736 158.796 148.892 158.796 147.936V122.786C158.796 121.83 159.162 120.986 159.893 120.255C160.625 119.523 161.469 119.157 162.425 119.157H187.575C188.531 119.157 189.375 119.523 190.107 120.255C190.838 120.986 191.204 121.83 191.204 122.786V147.936Z" fill="#94A3B8"/>
</svg>
